<svg id="그룹_21057" data-name="그룹 21057" xmlns="http://www.w3.org/2000/svg" width="30" height="30" viewBox="0 0 30 30">
  <rect id="사각형_6494" data-name="사각형 6494" width="30" height="30" fill="none"/>
  <circle id="타원_45" data-name="타원 45" cx="4.688" cy="4.688" r="4.688" transform="translate(10.313 10.313)" fill="none" stroke="#222" stroke-linecap="round" stroke-linejoin="round" stroke-width="1.8"/>
  <path id="패스_36127" data-name="패스 36127" d="M32.54,48.555a11.618,11.618,0,0,1-1.18-2.846l1.966-2.461a9.561,9.561,0,0,1,0-1.13l-1.965-2.461a11.652,11.652,0,0,1,1.178-2.848l3.13-.352a9.493,9.493,0,0,1,.8-.8l.352-3.129a11.618,11.618,0,0,1,2.843-1.171l2.461,1.966a9.561,9.561,0,0,1,1.13,0l2.461-1.965a11.652,11.652,0,0,1,2.848,1.178l.352,3.13a9.491,9.491,0,0,1,.8.8l3.129.352a11.618,11.618,0,0,1,1.18,2.846l-1.966,2.461a9.562,9.562,0,0,1,0,1.13l1.965,2.461a11.652,11.652,0,0,1-1.172,2.848l-3.13.352a9.492,9.492,0,0,1-.8.8l-.352,3.129a11.618,11.618,0,0,1-2.846,1.18l-2.461-1.966a9.559,9.559,0,0,1-1.13,0l-2.461,1.965a11.652,11.652,0,0,1-2.848-1.172l-.352-3.13a9.492,9.492,0,0,1-.8-.8Z" transform="translate(-27.685 -27.685)" fill="none" stroke="#222" stroke-linecap="round" stroke-linejoin="round" stroke-width="1.8"/>
</svg>
