<svg id="그룹_20083" data-name="그룹 20083" xmlns="http://www.w3.org/2000/svg" width="80" height="35.309" viewBox="0 0 80 35.309">
  <g id="그룹_4" data-name="그룹 4" transform="translate(19.671 1.419)">
    <path id="패스_2" data-name="패스 2" d="M224.632,274.492v5.881a1.778,1.778,0,0,1-.617,1.443,2.408,2.408,0,0,1-2.934.045,1.845,1.845,0,0,1-.681-1.488V264.687h4.232v6.323h4.352v3.482Z" transform="translate(-220.4 -264.687)" fill="#1ed0bf"/>
  </g>
  <g id="그룹_5" data-name="그룹 5" transform="translate(0 1.644)">
    <path id="패스_3" data-name="패스 3" d="M185.433,265.2a8.349,8.349,0,1,0,8.641,8.343A8.5,8.5,0,0,0,185.433,265.2Zm0,12.6a4.26,4.26,0,1,1,4.414-4.259A4.336,4.336,0,0,1,185.433,277.806Z" transform="translate(-176.781 -265.204)" fill="#1ed0bf"/>
  </g>
  <g id="그룹_6" data-name="그룹 6" transform="translate(28.343)">
    <path id="패스_4" data-name="패스 4" d="M261.7,280.347a2.461,2.461,0,0,1-1.958-.945l-7.882-10.118-7.833,10.069a2.5,2.5,0,0,1-3.421.47,2.3,2.3,0,0,1-.485-3.3l11.735-15.095,11.8,15.146a2.308,2.308,0,0,1-.49,3.3A2.5,2.5,0,0,1,261.7,280.347Z" transform="translate(-239.629 -261.425)" fill="#1ed0bf"/>
  </g>
  <g id="그룹_7" data-name="그룹 7" transform="translate(56.312 1.624)">
    <path id="패스_5" data-name="패스 5" d="M317.31,278.88q0,3.251-3.364,3.248h-8.964q-3.337,0-3.334-3.248V265.158h4.105v2.559h7.418v-2.559h4.138Zm-4.819-.839a.592.592,0,0,0,.681-.655v-5.811h-7.418v5.811c0,.435.226.655.681.655Z" transform="translate(-301.649 -265.158)" fill="#1ed0bf"/>
  </g>
  <g id="그룹_8" data-name="그룹 8" transform="translate(75.891 1.419)">
    <path id="패스_6" data-name="패스 6" d="M345.063,264.687v15.594a1.944,1.944,0,0,0,.649,1.548,1.982,1.982,0,0,0,1.389.508,2.128,2.128,0,0,0,1.469-.537,1.928,1.928,0,0,0,.6-1.519V264.687Z" transform="translate(-345.063 -264.687)" fill="#1ed0bf"/>
  </g>
  <g id="그룹_9" data-name="그룹 9" transform="translate(38.638 18.699)">
    <path id="패스_7" data-name="패스 7" d="M266.563,306.52V304.4h-4.105v6.68h0a1.952,1.952,0,0,0,.649,1.549,1.994,1.994,0,0,0,1.389.5,2.137,2.137,0,0,0,1.47-.536,1.934,1.934,0,0,0,.6-1.518V306.52Z" transform="translate(-262.458 -304.396)" fill="#1ed0bf"/>
  </g>
  <g id="그룹_10" data-name="그룹 10" transform="translate(27.051 27.524)">
    <path id="패스_8" data-name="패스 8" d="M263.092,325.43a2.388,2.388,0,0,0-1.4-.74,2.282,2.282,0,0,0-.5,0,2.228,2.228,0,0,0-.619.158,12.162,12.162,0,0,0-1.463.847c-.193.114-.377.218-.559.313a19.944,19.944,0,0,1-16.714-.039c-.153-.084-.307-.17-.469-.263a11.759,11.759,0,0,0-1.463-.848,2.115,2.115,0,0,0-.619-.16,2.089,2.089,0,0,0-.836.059h0a2.406,2.406,0,0,0-1.084.671,2.257,2.257,0,0,0,.207,3.267c2.759,2.357,7.492,3.764,12.655,3.764s9.895-1.407,12.654-3.764A2.258,2.258,0,0,0,263.092,325.43Z" transform="translate(-236.765 -324.677)" fill="#1ed0bf"/>
  </g>
</svg>
