<svg id="그룹_21063" data-name="그룹 21063" xmlns="http://www.w3.org/2000/svg" width="30" height="30" viewBox="0 0 30 30">
  <rect id="사각형_6495" data-name="사각형 6495" width="30" height="30" fill="none"/>
  <path id="패스_36128" data-name="패스 36128" d="M53.125,52.622V47a.937.937,0,0,0-.937-.937h-3.75A.937.937,0,0,0,47.5,47v5.625a.937.937,0,0,1-.937.938H40.938A.937.937,0,0,1,40,52.622V41.787a.937.937,0,0,1,.307-.694l9.375-8.852a.938.938,0,0,1,1.262,0l9.375,8.852a.938.938,0,0,1,.307.694V52.622a.938.938,0,0,1-.937.938H54.063A.937.937,0,0,1,53.125,52.622Z" transform="translate(-35.313 -28.247)" fill="none" stroke="#222" stroke-linecap="round" stroke-linejoin="round" stroke-width="2"/>
</svg>
