<svg xmlns="http://www.w3.org/2000/svg" width="115" height="114.117" viewBox="0 0 115 114.117">
  <g id="그룹_20061" data-name="그룹 20061" transform="translate(-156.383 -197.248)">
    <g id="그룹_3" data-name="그룹 3" transform="translate(156.383 197.248)">
      <g id="그룹_2" data-name="그룹 2">
        <g id="그룹_1" data-name="그룹 1">
          <path id="패스_1" data-name="패스 1" d="M204.09,291.556c-1.628-.211-3.745-.631-5.355-.912a48.519,48.519,0,0,1-8.071-2.041,66.108,66.108,0,0,1-11.082-4.944,49.84,49.84,0,0,1-10.919-8.193,40.814,40.814,0,0,1-8.405-12.232c-.262-.586-.551-1.169-.78-1.767-10.224-26.694,5.394-56.795,39.472-63.041s80.362,11.926,71.276,64.176c0,0-7.421,39.654-50.316,47.955-3.3.638-6.983,1.2-10.327.447-1.08-.243-2.7-.76-2.754-2.115-.071-1.988,2.7-3.264,3.62-4.258s4.474-4.262,1.563-8.8a8.536,8.536,0,0,0-4.145-3.394A16.186,16.186,0,0,0,204.09,291.556Z" transform="translate(-156.383 -197.248)" fill="#003779"/>
        </g>
      </g>
    </g>
    <g id="그룹_11" data-name="그룹 11" transform="translate(166.963 230.536)">
      <g id="그룹_4" data-name="그룹 4" transform="translate(22.625 1.692)">
        <path id="패스_2" data-name="패스 2" d="M225.268,276.375v7.009a2.155,2.155,0,0,1-.71,1.72,2.693,2.693,0,0,1-3.375.053,2.233,2.233,0,0,1-.783-1.773v-18.7h4.868v7.537h5.005v4.151Z" transform="translate(-220.4 -264.687)" fill="#fff"/>
      </g>
      <g id="그룹_5" data-name="그룹 5" transform="translate(0 1.96)">
        <path id="패스_3" data-name="패스 3" d="M186.732,265.2a9.946,9.946,0,1,0,9.939,9.945A9.946,9.946,0,0,0,186.732,265.2Zm0,15.021a5.074,5.074,0,1,1,5.077-5.076A5.074,5.074,0,0,1,186.732,280.225Z" transform="translate(-176.781 -265.204)" fill="#fff"/>
      </g>
      <g id="그룹_6" data-name="그룹 6" transform="translate(32.598)">
        <path id="패스_4" data-name="패스 4" d="M265.015,283.979a2.8,2.8,0,0,1-2.252-1.127l-9.066-12.06-9.01,12a2.81,2.81,0,1,1-4.493-3.377l13.5-17.993,13.569,18.053a2.813,2.813,0,0,1-2.247,4.5Z" transform="translate(-239.629 -261.425)" fill="#fff"/>
      </g>
      <g id="그룹_7" data-name="그룹 7" transform="translate(64.767 1.936)">
        <path id="패스_5" data-name="패스 5" d="M319.662,281.514q0,3.875-3.869,3.872h-10.31q-3.838,0-3.834-3.872V265.158h4.722v3.05H314.9v-3.05h4.759Zm-5.542-1a.693.693,0,0,0,.783-.781v-6.926h-8.532v6.926a.692.692,0,0,0,.783.781Z" transform="translate(-301.649 -265.158)" fill="#fff"/>
      </g>
      <g id="그룹_8" data-name="그룹 8" transform="translate(87.286 1.692)">
        <path id="패스_6" data-name="패스 6" d="M345.063,264.687v18.588a2.358,2.358,0,0,0,.747,1.845,2.234,2.234,0,0,0,1.6.605,2.4,2.4,0,0,0,1.69-.64,2.341,2.341,0,0,0,.692-1.811V264.687Z" transform="translate(-345.063 -264.687)" fill="#fff"/>
      </g>
      <g id="그룹_9" data-name="그룹 9" transform="translate(44.44 22.288)">
        <path id="패스_7" data-name="패스 7" d="M267.18,306.928V304.4h-4.722v7.962h0a2.367,2.367,0,0,0,.747,1.846,2.247,2.247,0,0,0,1.6.6,2.407,2.407,0,0,0,1.69-.639,2.348,2.348,0,0,0,.693-1.809v-5.428Z" transform="translate(-262.458 -304.396)" fill="#fff"/>
      </g>
      <g id="그룹_10" data-name="그룹 10" transform="translate(31.113 32.808)">
        <path id="패스_8" data-name="패스 8" d="M267.045,325.575a2.718,2.718,0,0,0-1.609-.882,2.535,2.535,0,0,0-.574,0,2.487,2.487,0,0,0-.712.189,13.855,13.855,0,0,0-1.683,1.01c-.222.136-.434.26-.643.373a22.209,22.209,0,0,1-19.223-.046c-.176-.1-.353-.2-.539-.313a13.418,13.418,0,0,0-1.683-1.01,2.363,2.363,0,0,0-.712-.19,2.322,2.322,0,0,0-.961.07h0a2.749,2.749,0,0,0-1.008,4.694c3.173,2.809,8.616,4.487,14.555,4.487s11.38-1.677,14.554-4.487A2.759,2.759,0,0,0,267.045,325.575Z" transform="translate(-236.765 -324.677)" fill="#fff"/>
      </g>
    </g>
  </g>
</svg>
